<mxfile host="65bd71144e">
    <diagram id="fO0ZR-raxINj5CSqaIXT" name="Page-1">
        <mxGraphModel dx="829" dy="458" grid="1" gridSize="10" guides="1" tooltips="1" connect="1" arrows="1" fold="1" page="1" pageScale="1" pageWidth="850" pageHeight="1100" math="0" shadow="0">
            <root>
                <mxCell id="0"/>
                <mxCell id="1" parent="0"/>
                <mxCell id="2" value="" style="whiteSpace=wrap;html=1;fillColor=#001933;gradientColor=none;" vertex="1" parent="1">
                    <mxGeometry x="190" y="10" width="240" height="390" as="geometry"/>
                </mxCell>
                <mxCell id="3" value="" style="whiteSpace=wrap;html=1;fillColor=#001933;gradientColor=none;" vertex="1" parent="1">
                    <mxGeometry x="200" y="210" width="120" height="170" as="geometry"/>
                </mxCell>
                <mxCell id="4" value="" style="whiteSpace=wrap;html=1;fillColor=#001933;gradientColor=none;" vertex="1" parent="1">
                    <mxGeometry x="330" y="210" width="90" height="170" as="geometry"/>
                </mxCell>
                <mxCell id="5" value="" style="ellipse;whiteSpace=wrap;html=1;fillColor=#FF9933;gradientColor=none;" vertex="1" parent="1">
                    <mxGeometry x="340" y="224" width="30" height="30" as="geometry"/>
                </mxCell>
                <mxCell id="6" value="" style="ellipse;whiteSpace=wrap;html=1;fillColor=#FF9933;gradientColor=none;" vertex="1" parent="1">
                    <mxGeometry x="380" y="223" width="30" height="30" as="geometry"/>
                </mxCell>
                <mxCell id="7" value="" style="ellipse;whiteSpace=wrap;html=1;fillColor=#FF9933;gradientColor=none;" vertex="1" parent="1">
                    <mxGeometry x="340" y="266" width="30" height="70" as="geometry"/>
                </mxCell>
                <mxCell id="8" value="" style="ellipse;whiteSpace=wrap;html=1;fillColor=#FF9933;gradientColor=none;" vertex="1" parent="1">
                    <mxGeometry x="380" y="266" width="30" height="30" as="geometry"/>
                </mxCell>
                <mxCell id="9" value="" style="ellipse;whiteSpace=wrap;html=1;fillColor=#FF9933;gradientColor=none;" vertex="1" parent="1">
                    <mxGeometry x="380" y="306" width="30" height="30" as="geometry"/>
                </mxCell>
                <mxCell id="10" value="" style="ellipse;whiteSpace=wrap;html=1;fillColor=#FF9933;gradientColor=none;" vertex="1" parent="1">
                    <mxGeometry x="340" y="346" width="70" height="20" as="geometry"/>
                </mxCell>
                <mxCell id="13" value="" style="whiteSpace=wrap;html=1;fillColor=#FF9933;gradientColor=none;" vertex="1" parent="1">
                    <mxGeometry x="200" y="30" width="220" height="170" as="geometry"/>
                </mxCell>
                <mxCell id="14" value="" style="whiteSpace=wrap;html=1;fillColor=#CCCCCC;gradientColor=none;" vertex="1" parent="1">
                    <mxGeometry x="210" y="40" width="200" height="40" as="geometry"/>
                </mxCell>
            </root>
        </mxGraphModel>
    </diagram>
</mxfile>